<?xml version="1.0" encoding="iso-8859-1"?>
<svg height="800px" width="800px" version="1.1" id="Layer_1" xmlns="http://www.w3.org/2000/svg" xmlns:xlink="http://www.w3.org/1999/xlink" 
	 viewBox="0 0 511.999 511.999" xml:space="preserve">
<circle style="fill:#F8F8F8;" cx="239.647" cy="242.214" r="231.149"/>
<g>
	<path style="fill:#E1E1E4;" d="M239.641,11.067c-127.66,0-231.147,103.487-231.147,231.147
		c0,127.658,103.487,231.147,231.147,231.147c127.659,0,231.147-103.489,231.147-231.147
		C470.788,114.553,367.3,11.067,239.641,11.067z M219.309,451.958c-108.747,0-196.902-88.156-196.902-196.902
		S110.562,58.153,219.309,58.153s196.902,88.156,196.902,196.902S328.055,451.958,219.309,451.958z"/>
	<circle style="fill:#E1E1E4;" cx="104.8" cy="272.173" r="21.402"/>
	<circle style="fill:#E1E1E4;" cx="71.279" cy="217.955" r="17.835"/>
	<circle style="fill:#E1E1E4;" cx="140.243" cy="199.398" r="34.962"/>
</g>
<path style="fill:#57555C;" d="M370.009,222.896c19.403,32.971,16.539,75.967-6.404,110.513l-29.823-33.752
	c0,0-2.021,22.338-14.362,33.243c-13.943,12.32-33.292,8.863-33.292,8.863l29.822,33.752
	c-37.111,18.516-80.129,16.062-110.465-7.248c-25.565,48.323-31.918,97.037-14.922,132.666
	c42.881-25.797,87.888-33.564,119.157-20.473c2.967-3.438,6.104-6.779,9.605-9.873c31.291-27.649,74.788-32.33,109.567-15.268
	c-12.652-36.613-2.653-79.2,28.64-106.851c3.504-3.095,7.203-5.795,10.983-8.32c-9.143-32.641,4.106-76.348,34.987-115.727
	C470.241,203.167,421.113,203.474,370.009,222.896z"/>
<path style="fill:#787780;" d="M428.888,455.322c-31.583-22.433-79.45-31.521-114.783-9.265c-3.953,2.49-7.586,5.282-11.07,8.199
	c-28.754-17.952-75.483-17.178-121.956,1.387c-0.414,12.775,2.504,30.683,9.473,45.289c42.881-25.797,87.888-33.564,119.157-20.473
	c2.966-3.438,6.104-6.779,9.605-9.873c31.291-27.649,74.788-32.33,109.567-15.268L428.888,455.322z"/>
<path style="fill:#3B3A3C;" d="M428.888,455.322c-18.374-34.105-21.498-82.718,4.939-115.041c2.958-3.616,6.175-6.878,9.5-9.975
	c-14.275-30.746-7.707-77.043,16.438-120.877c14.937,1.814,30.095,6.284,43.733,14.996c-30.882,39.378-44.131,83.086-34.991,115.73
	c-3.777,2.521-7.48,5.224-10.98,8.317c-31.291,27.649-41.294,70.238-28.644,106.853L428.888,455.322z"/>
<g>
	<path style="fill:#1C2042;" d="M386.203,74.119c3.871,3.392,7.67,6.96,11.288,10.602c1.601,1.612,3.706,2.418,5.811,2.418
		c2.087,0,4.176-0.793,5.774-2.381c3.209-3.188,3.226-8.375,0.037-11.584c-3.884-3.909-7.959-7.736-12.113-11.377
		c-3.402-2.982-8.578-2.64-11.559,0.762C382.459,65.962,382.801,71.137,386.203,74.119z"/>
	<path style="fill:#1C2042;" d="M511.883,223.39c-0.387-2.277-1.718-4.285-3.664-5.529c-9.648-6.165-20.57-10.677-32.477-13.546
		c-4.582-29.111-14.4-56.796-29.231-82.365c-2.271-3.913-7.283-5.247-11.196-2.976s-5.246,7.283-2.976,11.196
		c12.877,22.201,21.697,46.113,26.29,71.218c-27.374-2.881-58.704,1.833-91.225,14.192c-2.255,0.857-4.018,2.665-4.819,4.942
		c-0.799,2.276-0.555,4.791,0.668,6.87c15.879,26.984,15.397,62.3-0.632,92.529l-22.395-25.347
		c-2.162-2.446-5.571-3.367-8.674-2.357c-3.104,1.01-5.314,3.777-5.621,7.027c-0.505,5.337-3.576,20.744-11.628,27.858
		c-10.696,9.452-26.312,6.957-26.428,6.938c-3.432-0.614-6.875,1.012-8.582,4.051c-1.707,3.039-1.305,6.825,1.003,9.437
		l22.396,25.347c-31.971,12.184-67.08,8.316-91.908-10.763c-1.914-1.47-4.378-2.023-6.736-1.508
		c-2.357,0.513-4.369,2.04-5.497,4.173c-5.199,9.828-9.685,19.797-13.334,29.629c-1.574,4.241,0.589,8.956,4.83,10.53
		c4.241,1.573,8.956-0.589,10.53-4.83c2.389-6.434,5.165-12.941,8.292-19.43c31.764,19.653,74.264,20.862,111.045,2.509
		c2.277-1.136,3.898-3.267,4.384-5.765c0.486-2.499-0.216-5.081-1.902-6.988l-18.39-20.812c6.801-1.379,14.438-4.314,21.145-10.24
		c6.814-6.021,10.957-14.435,13.455-21.897l19.166,21.692c1.685,1.907,4.16,2.92,6.701,2.748c2.539-0.175,4.853-1.52,6.261-3.64
		c22.745-34.249,26.777-76.571,11.178-110.509c42.408-14.345,81.489-14.49,109.744-0.478
		c-26.933,37.373-38.662,77.396-32.104,109.668c-2.627,1.915-4.958,3.78-7.138,5.707c-28.716,25.373-41.647,63.033-35.175,99.456
		c-35.352-10.905-74.318-2.709-103.033,22.663c-2.18,1.926-4.318,4.007-6.54,6.378c-31.218-10.478-72.377-3.77-112.778,18.353
		c-5.393-15.5-6.704-33.786-3.769-53.468c0.667-4.475-2.419-8.644-6.894-9.31c-4.479-0.666-8.643,2.419-9.31,6.894
		c-1.079,7.237-1.625,14.325-1.681,21.222C80.445,426.13,16.383,339.788,16.383,241.871c0-122.937,100.017-222.955,222.954-222.955
		c38.35,0,76.167,9.896,109.361,28.618c3.941,2.223,8.937,0.83,11.159-3.111c2.223-3.941,0.83-8.938-3.111-11.159
		C321.102,13.158,280.501,2.532,239.337,2.532c-63.929,0-124.032,24.895-169.237,70.102C24.895,117.839,0,177.942,0,241.871
		c0,107.145,71.465,201.374,174.204,230.355c1.47,11.755,4.567,22.722,9.268,32.577c0.994,2.085,2.822,3.654,5.035,4.319
		c0.773,0.232,1.567,0.346,2.358,0.346c1.473,0,2.936-0.398,4.223-1.172c40.342-24.272,83.169-31.912,111.771-19.936
		c3.27,1.367,7.05,0.478,9.365-2.205c3.187-3.694,5.992-6.581,8.829-9.086c28.015-24.755,67.477-30.27,100.536-14.053
		c2.979,1.461,6.545,0.982,9.033-1.216c2.487-2.198,3.402-5.677,2.319-8.814c-12.027-34.8-1.694-73.281,26.322-98.037
		c2.835-2.506,6.048-4.935,10.108-7.646c2.948-1.968,4.296-5.61,3.34-9.023c-8.362-29.854,4.491-71.414,33.546-108.462
		C511.679,228.003,512.271,225.666,511.883,223.39z"/>
</g>
</svg>