<?xml version="1.0" encoding="iso-8859-1"?>
<svg fill="#000000" height="800px" width="800px" version="1.1" id="Layer_1" xmlns="http://www.w3.org/2000/svg" xmlns:xlink="http://www.w3.org/1999/xlink" 
	 viewBox="0 0 511.999 511.999" xml:space="preserve">
<g>
	<g>
		<path d="M409.113,73.174c-3.884-3.909-7.959-7.736-12.113-11.377c-3.402-2.982-8.578-2.64-11.559,0.762
			c-2.982,3.402-2.64,8.577,0.762,11.559c3.871,3.393,7.67,6.96,11.288,10.602c1.601,1.612,3.706,2.418,5.811,2.418
			c2.087,0,4.176-0.793,5.774-2.381C412.285,81.57,412.302,76.383,409.113,73.174z"/>
	</g>
</g>
<g>
	<g>
		<path d="M511.883,223.39c-0.387-2.277-1.718-4.285-3.664-5.529c-9.648-6.165-20.57-10.677-32.477-13.546
			c-4.582-29.111-14.4-56.796-29.231-82.365c-2.271-3.914-7.283-5.247-11.196-2.976c-3.914,2.271-5.246,7.283-2.976,11.196
			c12.877,22.201,21.697,46.113,26.29,71.218c-27.373-2.881-58.704,1.833-91.225,14.192c-2.255,0.857-4.018,2.665-4.819,4.942
			c-0.799,2.276-0.555,4.791,0.668,6.87c15.879,26.984,15.397,62.3-0.632,92.529l-22.395-25.347
			c-2.161-2.445-5.571-3.367-8.674-2.357c-3.104,1.01-5.314,3.777-5.621,7.027c-0.505,5.337-3.576,20.744-11.628,27.858
			c-10.696,9.452-26.312,6.958-26.428,6.938c-3.432-0.614-6.875,1.012-8.582,4.051c-1.707,3.039-1.305,6.825,1.003,9.437
			l22.396,25.347c-31.971,12.184-67.081,8.316-91.908-10.763c-1.914-1.47-4.378-2.023-6.736-1.508
			c-2.357,0.513-4.369,2.04-5.497,4.173c-5.199,9.828-9.685,19.797-13.334,29.629c-1.574,4.241,0.589,8.956,4.83,10.53
			c4.241,1.573,8.956-0.589,10.53-4.83c2.389-6.434,5.165-12.941,8.292-19.43c31.764,19.653,74.264,20.862,111.045,2.509
			c2.277-1.136,3.898-3.267,4.384-5.765c0.486-2.499-0.216-5.081-1.902-6.988l-18.39-20.813c6.801-1.379,14.438-4.314,21.145-10.24
			c6.814-6.021,10.957-14.435,13.455-21.897l19.167,21.692c1.685,1.907,4.16,2.92,6.701,2.748c2.539-0.175,4.853-1.52,6.261-3.64
			c22.745-34.249,26.777-76.571,11.178-110.509c42.408-14.345,81.489-14.49,109.744-0.478
			c-26.933,37.373-38.662,77.396-32.104,109.668c-2.627,1.915-4.958,3.78-7.138,5.707c-28.716,25.372-41.647,63.033-35.175,99.456
			c-35.352-10.905-74.318-2.709-103.034,22.663c-2.18,1.926-4.318,4.007-6.54,6.378c-31.218-10.478-72.377-3.77-112.778,18.353
			c-5.393-15.5-6.704-33.786-3.769-53.468c0.667-4.475-2.419-8.644-6.894-9.31c-4.479-0.666-8.643,2.419-9.31,6.894
			c-1.079,7.237-1.625,14.325-1.681,21.222C80.445,426.13,16.383,339.788,16.383,241.871c0-122.937,100.017-222.955,222.954-222.955
			c38.35,0,76.167,9.896,109.361,28.618c3.941,2.223,8.937,0.83,11.159-3.111c2.223-3.941,0.83-8.938-3.111-11.159
			C321.102,13.158,280.501,2.532,239.337,2.532c-63.929,0-124.032,24.895-169.237,70.102C24.895,117.839,0,177.942,0,241.871
			c0,107.145,71.465,201.374,174.204,230.355c1.47,11.755,4.567,22.722,9.268,32.577c0.994,2.085,2.822,3.654,5.035,4.319
			c0.773,0.232,1.567,0.346,2.358,0.346c1.473,0,2.936-0.398,4.223-1.172c40.342-24.272,83.169-31.912,111.771-19.936
			c3.27,1.367,7.05,0.478,9.365-2.205c3.187-3.694,5.992-6.581,8.829-9.086c28.015-24.755,67.477-30.27,100.536-14.053
			c2.979,1.461,6.545,0.982,9.033-1.216c2.487-2.198,3.402-5.677,2.319-8.814c-12.027-34.8-1.694-73.281,26.322-98.037
			c2.835-2.506,6.048-4.935,10.107-7.646c2.948-1.968,4.296-5.61,3.34-9.023c-8.362-29.854,4.491-71.414,33.546-108.462
			C511.679,228.003,512.271,225.666,511.883,223.39z"/>
	</g>
</g>
</svg>