<?xml version="1.0" encoding="UTF-8" standalone="no"?><!DOCTYPE svg PUBLIC "-//W3C//DTD SVG 1.1//EN" "http://www.w3.org/Graphics/SVG/1.1/DTD/svg11.dtd"><svg width="100%" height="100%" viewBox="0 0 1200 201" version="1.1" xmlns="http://www.w3.org/2000/svg" xmlns:xlink="http://www.w3.org/1999/xlink" xml:space="preserve" xmlns:serif="http://www.serif.com/" style="fill-rule:evenodd;clip-rule:evenodd;stroke-linecap:round;stroke-linejoin:round;stroke-miterlimit:1.5;"><g id="Artboard2" transform="matrix(1.49068,0,0,1,0,0)"><rect x="0" y="0" width="805" height="201" style="fill:none;"/><clipPath id="_clip1"><rect x="0" y="0" width="805" height="201"/></clipPath><g clip-path="url(#_clip1)"><g transform="matrix(2.79988,0,0,4.17373,134.998,-296.726)"><g id="Artboard1"><g><g transform="matrix(1,0,0,1,-0.297237,-0.0210414)"><path d="M191.396,98.372C190.014,90.657 182.621,85.516 174.879,86.881C174.141,87.013 173.65,87.714 173.787,88.447C173.914,89.183 174.631,89.647 175.353,89.539C181.602,88.41 187.619,92.595 188.743,98.854C189.449,102.796 188.521,106.919 186.195,110.184C184.771,112.172 182.894,113.669 180.78,114.687C185.584,110.749 186.364,103.656 182.483,98.778C179.255,94.728 173.338,94.052 169.294,97.283C167.67,98.577 166.642,100.433 166.41,102.49C166.178,104.552 166.763,106.588 168.06,108.212C169.141,109.572 170.675,110.433 172.411,110.627C174.14,110.822 175.466,110.297 176.821,109.21C177.143,108.957 177.397,108.731 177.663,108.254C177.895,107.838 178.069,107.385 178.069,106.867C178.069,105.28 176.788,103.982 175.184,103.982C173.597,103.982 172.31,105.275 172.31,106.867C172.31,107.226 172.395,107.558 172.516,107.88C171.593,107.727 170.765,107.279 170.18,106.53C169.33,105.475 168.946,104.151 169.104,102.801C169.267,101.45 169.921,100.243 170.992,99.4C173.877,97.098 178.085,97.586 180.394,100.455C183.379,104.215 182.751,109.694 178.997,112.689C174.183,116.523 168.54,115.842 163.119,110.759C162.887,110.548 157.018,104.641 153.88,100.696C152.472,98.929 151.117,97.021 149.756,95.122C150.231,95.206 150.695,95.309 151.175,95.309C152.62,95.309 154.075,94.916 155.494,94.118C159.096,92.093 160.382,87.497 158.357,83.88C156.669,80.866 152.825,79.779 149.798,81.481C148.559,82.171 147.672,83.308 147.293,84.674C146.913,86.04 147.092,87.471 147.788,88.703C148.996,90.862 151.413,91.497 153.58,90.282C154.102,89.989 154.299,89.563 154.538,89.084C154.584,88.992 154.606,88.859 154.628,88.762C154.76,87.789 154.101,86.898 153.13,86.753C152.192,86.613 151.332,87.262 151.163,88.19C150.747,88.056 150.372,87.789 150.141,87.381C149.803,86.777 149.708,86.073 149.893,85.403C150.082,84.733 150.515,84.176 151.122,83.837C152.862,82.877 155.046,83.486 156.005,85.2C157.303,87.52 156.48,90.463 154.17,91.76C150.294,93.947 147.294,91.447 145.695,89.514C139.03,80.51 131.41,72.4 118.105,72.4L118,72.4C111.424,72.421 105.476,75.05 101.223,79.804C98.576,82.762 96.827,86.438 95.849,90.409C94.884,86.432 93.128,82.763 90.475,79.804C86.227,75.05 80.271,72.421 73.698,72.4L73.595,72.4C60.301,72.4 52.68,80.5 46.012,89.502C44.414,91.435 41.401,93.945 37.525,91.759C35.213,90.457 34.392,87.514 35.687,85.199C36.655,83.474 38.846,82.86 40.57,83.83C41.174,84.17 41.606,84.726 41.796,85.396C41.983,86.066 41.899,86.767 41.559,87.379C41.324,87.787 40.947,88.048 40.531,88.183C40.354,87.255 39.5,86.612 38.561,86.751C37.588,86.896 36.929,87.787 37.066,88.76C37.082,88.863 37.094,88.998 37.137,89.084C37.377,89.563 37.577,89.989 38.096,90.282C40.261,91.497 42.698,90.86 43.906,88.701C44.605,87.465 44.776,86.033 44.394,84.667C44.014,83.307 43.123,82.17 41.894,81.474C38.874,79.785 35.031,80.86 33.332,83.879C31.307,87.491 32.594,92.087 36.201,94.112C37.622,94.911 39.08,95.304 40.52,95.304C40.998,95.304 41.467,95.196 41.936,95.116C40.576,97.022 39.226,98.928 37.815,100.695C34.682,104.634 28.808,110.547 28.575,110.758C23.149,115.836 17.506,116.516 12.694,112.682C8.942,109.693 8.314,104.213 11.302,100.453C13.606,97.566 17.825,97.086 20.702,99.393C21.767,100.231 22.437,101.444 22.587,102.789C22.737,104.134 22.36,105.463 21.506,106.518C20.923,107.261 20.092,107.709 19.175,107.868C19.294,107.547 19.378,107.215 19.378,106.856C19.378,105.268 18.088,103.971 16.502,103.971C14.909,103.971 13.617,105.263 13.617,106.856C13.617,107.367 13.791,107.826 14.023,108.243C14.376,108.731 14.535,108.957 14.855,109.21C16.215,110.297 17.559,110.811 19.275,110.61C21,110.421 22.545,109.561 23.618,108.206C24.915,106.582 25.503,104.552 25.266,102.479C25.034,100.412 24.009,98.56 22.382,97.276C18.337,94.041 12.42,94.716 9.185,98.771C5.312,103.639 6.09,110.737 10.891,114.676C8.774,113.653 6.899,112.16 5.475,110.172C3.146,106.908 2.219,102.789 2.931,98.842C4.054,92.577 10.037,88.398 16.318,89.527C17.043,89.635 17.755,89.172 17.884,88.435C18.013,87.703 17.528,87.001 16.793,86.869C9.078,85.498 1.663,90.64 0.276,98.36C-0.562,103.016 0.534,107.889 3.282,111.739C5.966,115.494 9.913,117.935 14.401,118.626C25.612,120.319 32.27,112.019 39.932,102.363C39.974,102.31 40.014,102.247 40.056,102.194L40.061,102.194C41.714,100.364 45.084,97.685 48.989,100.285C51.196,101.751 51.802,104.747 50.35,106.94C49.258,108.586 47.028,109.028 45.382,107.936C44.188,107.14 43.863,105.532 44.652,104.345C44.95,103.903 45.409,103.67 45.899,103.596C46.063,104.483 46.827,105.136 47.734,105.063C48.713,104.967 49.432,104.129 49.345,103.154C49.334,103.011 49.167,102.633 49.117,102.501C48.877,102.022 48.877,102.022 48.649,101.603C47.461,99.422 43.776,100.786 42.4,102.842C40.787,105.268 41.451,108.564 43.879,110.178C44.949,110.884 46.157,111.222 47.352,111.222C49.387,111.222 51.386,110.236 52.596,108.421C54.874,104.978 53.93,100.317 50.484,98.022C48.459,96.677 46.283,96.229 44.145,96.638C44.43,96.24 44.723,95.87 45.007,95.473C46.093,93.944 47.201,92.427 48.319,90.919C48.35,90.877 48.392,90.845 48.427,90.8C48.432,90.79 48.427,90.774 48.437,90.763C54.647,82.447 61.742,75.082 73.599,75.082L73.686,75.082C79.487,75.098 84.728,77.408 88.459,81.582C92.641,86.265 94.61,92.88 93.859,99.736C93.316,104.746 90.853,109.249 86.922,112.402C83.281,115.324 78.801,116.7 74.178,116.473C71.397,115.988 69.16,114.717 67.729,112.698C66.002,110.261 65.435,106.844 66.179,103.322C66.661,101.054 67.996,99.111 69.944,97.837C71.893,96.574 74.211,96.142 76.488,96.622C78.238,96.994 79.739,98.022 80.712,99.525C81.682,101.022 82.012,102.804 81.64,104.566C81.364,105.884 80.594,107.013 79.465,107.752C78.328,108.5 76.973,108.754 75.623,108.463C74.727,108.279 73.973,107.741 73.421,107.014C74.771,106.76 75.792,105.621 75.775,104.198C75.746,102.61 74.446,101.34 72.848,101.361C71.648,101.372 70.628,102.135 70.211,103.174C70.169,103.27 70.028,104.382 70.033,104.424C69.962,105.774 70.2,107.119 70.95,108.279C71.894,109.739 73.352,110.736 75.058,111.099C77.078,111.527 79.184,111.147 80.935,110.002C82.667,108.868 83.857,107.128 84.276,105.108C84.8,102.656 84.337,100.146 82.965,98.042C81.599,95.94 79.492,94.493 77.035,93.977C74.071,93.344 71.013,93.906 68.46,95.569C65.905,97.225 64.154,99.777 63.524,102.751C62.778,106.274 63.2,109.702 64.571,112.522C64.054,112.043 63.529,111.563 63.081,110.999C60.602,107.909 59.469,104.038 59.901,100.104C60.592,93.749 66.327,89.159 72.687,89.829C73.438,89.892 74.098,89.375 74.174,88.629C74.253,87.888 73.718,87.221 72.975,87.145C65.16,86.331 58.07,91.983 57.212,99.809C56.692,104.471 58.027,109.038 60.959,112.692C63.891,116.341 68.07,118.635 72.732,119.142C73.201,119.189 73.665,119.195 74.129,119.215C74.206,119.226 74.269,119.252 74.35,119.263C74.411,119.268 74.463,119.273 74.524,119.273C74.556,119.273 74.577,119.248 74.608,119.242C74.776,119.242 74.943,119.268 75.117,119.268C80.008,119.268 84.717,117.618 88.591,114.511C92.182,111.626 94.637,107.751 95.82,103.395C97.009,107.746 99.459,111.622 103.048,114.511C106.919,117.622 111.628,119.268 116.522,119.268C116.685,119.268 116.854,119.247 117.028,119.242C117.065,119.242 117.087,119.273 117.118,119.273C117.181,119.273 117.234,119.273 117.292,119.263C117.366,119.252 117.43,119.226 117.514,119.215C117.978,119.194 118.443,119.189 118.907,119.142C123.558,118.624 127.745,116.336 130.682,112.692C133.614,109.038 134.953,104.471 134.437,99.809C133.587,91.983 126.527,86.286 118.68,87.145C117.936,87.227 117.409,87.889 117.477,88.629C117.562,89.375 118.258,89.898 118.964,89.829C125.314,89.154 131.051,93.755 131.747,100.104C132.18,104.038 131.051,107.909 128.567,110.999C128.119,111.563 127.591,112.038 127.08,112.522C128.445,109.702 128.873,106.274 128.124,102.761C127.491,99.787 125.746,97.229 123.188,95.573C120.635,93.909 117.582,93.347 114.613,93.98C112.156,94.502 110.047,95.945 108.68,98.046C107.315,100.145 106.85,102.655 107.372,105.107C107.789,107.132 108.985,108.878 110.716,110.011C112.456,111.14 114.544,111.535 116.585,111.103C118.288,110.739 119.749,109.737 120.698,108.277C121.452,107.122 121.689,105.777 121.615,104.427C121.615,104.379 121.483,103.272 121.441,103.182C121.019,102.138 120.002,101.378 118.804,101.369C117.206,101.337 115.904,102.613 115.877,104.2C115.861,105.619 116.89,106.758 118.234,107.021C117.68,107.744 116.931,108.266 116.035,108.466C114.706,108.761 113.341,108.497 112.201,107.754C111.073,107.011 110.287,105.882 110.018,104.558C109.649,102.808 109.976,101.025 110.946,99.523C111.922,98.017 113.42,96.991 115.171,96.62C117.448,96.13 119.775,96.564 121.715,97.835C123.655,99.093 124.995,101.046 125.481,103.32C126.224,106.842 125.66,110.259 123.93,112.696C122.491,114.72 120.249,115.986 117.47,116.461C112.861,116.704 108.363,115.322 104.735,112.4C100.798,109.247 98.336,104.744 97.797,99.734C97.046,92.878 99.016,86.262 103.2,81.585C106.923,77.411 112.175,75.101 117.971,75.085L118.061,75.085C129.911,75.085 137.008,82.455 143.22,90.766C143.226,90.777 143.22,90.792 143.231,90.803C143.268,90.847 143.31,90.879 143.341,90.916C144.465,92.424 145.567,93.945 146.653,95.47C146.937,95.867 147.227,96.237 147.512,96.635C145.376,96.226 143.193,96.675 141.173,98.025C137.724,100.314 136.785,104.986 139.059,108.424C140.266,110.233 142.265,111.219 144.3,111.219C145.502,111.219 146.705,110.881 147.78,110.175C150.206,108.55 150.871,105.265 149.257,102.839C147.87,100.777 144.116,99.37 143.008,101.6C142.798,102.022 142.798,102.022 142.559,102.501C142.511,102.633 142.328,103.013 142.312,103.151C142.228,104.131 142.945,104.975 143.926,105.06C144.833,105.133 145.598,104.48 145.756,103.593C146.246,103.667 146.71,103.894 147.005,104.337C147.796,105.524 147.464,107.137 146.273,107.928C144.627,109.015 142.397,108.572 141.305,106.937C139.844,104.733 140.456,101.743 142.66,100.282C146.573,97.672 149.937,100.361 151.588,102.191L151.593,102.191C151.636,102.254 151.672,102.307 151.715,102.36C159.371,112.01 166.006,120.316 177.248,118.618C181.736,117.932 185.681,115.491 188.365,111.736C191.137,107.901 192.244,103.033 191.396,98.372Z" style="fill-rule:nonzero;"/></g><g transform="matrix(0.239594,0,0,0.239594,-48.2157,71.0936)"><path d="M1195,196C1154,152 957.281,204.129 900,188" style="fill:none;stroke:black;stroke-width:10px;"/></g><g transform="matrix(-0.239594,0,0,0.239594,239.297,71.0936)"><path d="M1195,196C1154,152 957.281,204.129 900,188" style="fill:none;stroke:black;stroke-width:10px;"/></g></g></g></g></g></g></svg>