<?xml version="1.0" encoding="UTF-8" standalone="no"?>
<!DOCTYPE svg PUBLIC "-//W3C//DTD SVG 1.1//EN" "http://www.w3.org/Graphics/SVG/1.1/DTD/svg11.dtd">
<svg width="100%" height="100%" viewBox="0 0 736 736" version="1.1" xmlns="http://www.w3.org/2000/svg" xmlns:xlink="http://www.w3.org/1999/xlink" xml:space="preserve" xmlns:serif="http://www.serif.com/" style="fill-rule:evenodd;clip-rule:evenodd;stroke-linejoin:round;stroke-miterlimit:2;">
    <g id="Artboard1" transform="matrix(0.92,0,0,0.92,0,0)">
        <rect x="0" y="0" width="800" height="800" style="fill:none;"/>
        <g transform="matrix(1.64163,0,0,1.64163,-16.4078,-47.5996)">
            <path d="M166.594,96.28C124.604,134.82 68.824,171.255 19.124,182.28C59.262,196.486 126.714,200.888 172.406,191.812L173.626,191.406L173.626,191.594C173.832,191.551 174.044,191.512 174.25,191.469C227.51,222.795 268.468,223.651 325.25,191.469C325.506,191.555 325.774,191.632 326.03,191.719L326,191.405L333.594,194.03C333.699,194.06 333.801,194.096 333.906,194.125C378.116,206.413 436.81,203.24 488.186,182.155C428.662,172.507 363.316,130.542 333.094,96.281C277.592,135.904 222.094,128.428 166.594,96.281L166.594,96.28ZM28.72,206.688C40.346,229.006 61.332,264.328 93.625,301.501C92.075,283.337 91.11,265.556 90.595,248.876C68.415,237.611 47.597,223.596 28.719,206.688L28.72,206.688ZM475.875,214.22C455.325,228.953 432.775,241.535 408.937,251.844C408.33,269.59 407.205,288.527 405.437,307.781C439.413,272.866 462.27,238.177 475.875,214.221L475.875,214.22ZM153.562,217.406C138.528,221.126 123.548,222.261 109,221.562C108.884,261.019 111.945,311.616 119.22,358.844C124.474,392.964 132.217,425.032 141.594,449.031L153.564,217.407L153.562,217.406ZM346.062,217.406L358.032,449.031C367.408,425.033 375.152,392.965 380.406,358.845C387.68,311.617 390.741,261.02 390.626,221.565C376.072,222.262 361.102,221.13 346.063,217.407L346.062,217.406ZM330.406,276.5C277.326,287.405 221.691,287.898 169.25,276.53L164.812,362.563C214.455,385.721 283.232,385.023 334.812,362.063L330.406,276.5Z" style="fill:rgb(150,3,26);fill-rule:nonzero;"/>
            <clipPath id="_clip1">
                <path d="M166.594,96.28C124.604,134.82 68.824,171.255 19.124,182.28C59.262,196.486 126.714,200.888 172.406,191.812L173.626,191.406L173.626,191.594C173.832,191.551 174.044,191.512 174.25,191.469C227.51,222.795 268.468,223.651 325.25,191.469C325.506,191.555 325.774,191.632 326.03,191.719L326,191.405L333.594,194.03C333.699,194.06 333.801,194.096 333.906,194.125C378.116,206.413 436.81,203.24 488.186,182.155C428.662,172.507 363.316,130.542 333.094,96.281C277.592,135.904 222.094,128.428 166.594,96.281L166.594,96.28ZM28.72,206.688C40.346,229.006 61.332,264.328 93.625,301.501C92.075,283.337 91.11,265.556 90.595,248.876C68.415,237.611 47.597,223.596 28.719,206.688L28.72,206.688ZM475.875,214.22C455.325,228.953 432.775,241.535 408.937,251.844C408.33,269.59 407.205,288.527 405.437,307.781C439.413,272.866 462.27,238.177 475.875,214.221L475.875,214.22ZM153.562,217.406C138.528,221.126 123.548,222.261 109,221.562C108.884,261.019 111.945,311.616 119.22,358.844C124.474,392.964 132.217,425.032 141.594,449.031L153.564,217.407L153.562,217.406ZM346.062,217.406L358.032,449.031C367.408,425.033 375.152,392.965 380.406,358.845C387.68,311.617 390.741,261.02 390.626,221.565C376.072,222.262 361.102,221.13 346.063,217.407L346.062,217.406ZM330.406,276.5C277.326,287.405 221.691,287.898 169.25,276.53L164.812,362.563C214.455,385.721 283.232,385.023 334.812,362.063L330.406,276.5Z" clip-rule="nonzero"/>
            </clipPath>
            <g clip-path="url(#_clip1)">
                <g transform="matrix(0.66212,0,0,0.66212,9.99482,28.9953)">
                    <path d="M216.829,284.557L216.832,284.558L198.754,634.38C184.592,598.134 172.898,549.702 164.963,498.17C153.975,426.842 149.352,350.425 149.527,290.833C171.499,291.889 194.124,290.175 216.829,284.557Z" style="fill:white;"/>
                </g>
                <g transform="matrix(0.66212,0,0,0.66212,9.99482,28.9953)">
                    <path d="M507.562,284.557L507.564,284.558C530.277,290.181 552.886,291.891 574.867,290.838C575.041,350.427 570.418,426.843 559.432,498.172C551.497,549.703 539.801,598.136 525.64,634.38L507.562,284.557Z" style="fill:white;"/>
                </g>
            </g>
            <path d="M166.594,96.28C124.604,134.82 68.824,171.255 19.124,182.28C59.262,196.486 126.714,200.888 172.406,191.812L173.626,191.406L173.626,191.594C173.832,191.551 174.044,191.512 174.25,191.469C227.51,222.795 268.468,223.651 325.25,191.469C325.506,191.555 325.774,191.632 326.03,191.719L326,191.405L333.594,194.03C333.699,194.06 333.801,194.096 333.906,194.125C378.116,206.413 436.81,203.24 488.186,182.155C428.662,172.507 363.316,130.542 333.094,96.281C277.592,135.904 222.094,128.428 166.594,96.281L166.594,96.28ZM28.72,206.688C40.346,229.006 61.332,264.328 93.625,301.501C92.075,283.337 91.11,265.556 90.595,248.876C68.415,237.611 47.597,223.596 28.719,206.688L28.72,206.688ZM475.875,214.22C455.325,228.953 432.775,241.535 408.937,251.844C408.33,269.59 407.205,288.527 405.437,307.781C439.413,272.866 462.27,238.177 475.875,214.221L475.875,214.22ZM153.562,217.406C138.528,221.126 123.548,222.261 109,221.562C108.884,261.019 111.945,311.616 119.22,358.844C124.474,392.964 132.217,425.032 141.594,449.031L153.564,217.407L153.562,217.406ZM346.062,217.406L358.032,449.031C367.408,425.033 375.152,392.965 380.406,358.845C387.68,311.617 390.741,261.02 390.626,221.565C376.072,222.262 361.102,221.13 346.063,217.407L346.062,217.406ZM330.406,276.5C277.326,287.405 221.691,287.898 169.25,276.53L164.812,362.563C214.455,385.721 283.232,385.023 334.812,362.063L330.406,276.5Z" style="fill:none;fill-rule:nonzero;stroke:white;stroke-width:16px;"/>
        </g>
    </g>
</svg>
